<?xml version="1.0" standalone="no"?>
<!DOCTYPE svg PUBLIC "-//W3C//DTD SVG 20010904//EN"
 "http://www.w3.org/TR/2001/REC-SVG-20010904/DTD/svg10.dtd">
<svg version="1.0" xmlns="http://www.w3.org/2000/svg"
 width="1235.000000pt" height="1235.000000pt" viewBox="0 0 1235.000000 1235.000000"
 preserveAspectRatio="xMidYMid meet">
<metadata>
Created by potrace 1.11, written by Peter Selinger 2001-2013
</metadata>
<g transform="translate(0.000000,1235.000000) scale(0.100000,-0.100000)"
fill="#000000" stroke="none">
<path d="M2778 11505 c-1 -1 -30 -5 -63 -9 -33 -3 -72 -8 -87 -11 -16 -3 -40
-7 -55 -10 -16 -2 -41 -7 -58 -11 -40 -8 -185 -52 -210 -64 -11 -5 -45 -19
-75 -31 -30 -13 -68 -32 -85 -43 -16 -12 -30 -19 -31 -16 0 3 -36 -18 -80 -47
-249 -162 -443 -401 -556 -684 -29 -73 -64 -194 -74 -254 -3 -22 -7 -42 -9
-45 -9 -15 -19 -148 -19 -260 0 -141 10 -253 29 -320 2 -8 7 -31 10 -50 11
-66 77 -246 124 -340 67 -133 160 -275 264 -402 30 -38 35 -48 23 -55 -18 -10
-185 -173 -286 -279 -220 -232 -411 -496 -533 -738 -34 -67 -68 -137 -76 -156
-7 -19 -19 -48 -26 -65 -31 -74 -65 -197 -90 -325 -3 -14 -7 -36 -10 -50 -23
-107 -23 -401 0 -510 3 -14 8 -41 11 -60 3 -19 8 -44 11 -55 9 -26 11 -34 18
-68 12 -60 71 -208 128 -321 170 -340 455 -658 842 -941 83 -61 326 -215 339
-215 4 0 123 -66 286 -158 399 -227 787 -487 1095 -736 468 -378 841 -814 993
-1162 51 -117 84 -220 98 -308 3 -21 8 -48 10 -60 22 -108 22 -339 -1 -456 -3
-14 -8 -41 -11 -60 -8 -49 -50 -189 -71 -236 -9 -21 -17 -41 -18 -44 -6 -26
-86 -168 -132 -233 -174 -247 -397 -405 -696 -491 -48 -14 -109 -28 -135 -32
-26 -3 -56 -8 -67 -10 -101 -21 -406 -21 -520 0 -11 2 -41 6 -66 10 -44 6 -69
11 -115 20 -431 87 -773 358 -1007 797 -54 102 -147 334 -173 429 -17 66 -46
180 -50 200 -3 14 -7 32 -9 40 -2 8 -7 29 -10 45 -2 17 -7 40 -9 52 -3 11 -7
43 -11 70 -4 26 -9 59 -11 73 -8 47 -21 193 -23 266 -1 30 -2 31 -45 29 -52
-3 -55 -1 -94 48 l-30 37 -22 -27 c-21 -26 -22 -35 -16 -153 3 -69 8 -135 10
-147 3 -12 7 -46 10 -75 4 -29 8 -64 11 -78 3 -13 7 -40 10 -60 3 -20 8 -47
10 -60 3 -14 7 -36 10 -50 3 -14 9 -40 14 -57 5 -18 8 -33 6 -33 -3 0 0 -11 5
-25 5 -14 12 -36 14 -48 22 -119 109 -360 192 -528 236 -478 615 -809 1060
-924 133 -34 146 -36 244 -50 25 -4 56 -9 70 -11 126 -22 470 -22 587 0 11 3
38 7 59 10 22 4 57 11 79 17 22 6 49 13 60 15 48 9 187 60 265 97 421 199 743
626 825 1092 2 17 7 41 10 55 23 108 24 403 1 516 -2 12 -7 38 -10 58 -12 74
-49 209 -77 279 -21 55 -139 298 -149 307 -3 3 -27 39 -54 80 -62 96 -150 212
-242 321 l-73 87 52 43 c303 254 627 624 794 909 97 165 197 399 218 508 2 12
6 25 8 30 3 4 8 23 11 42 3 19 8 46 11 60 29 142 26 494 -6 577 -5 13 -6 23
-4 23 2 0 0 11 -5 26 -6 14 -12 39 -15 55 -7 41 -76 222 -110 289 -109 217
-250 406 -451 601 -149 145 -220 204 -395 332 -66 48 -309 197 -322 197 -2 0
-40 19 -83 43 -44 24 -113 62 -154 84 -354 191 -811 484 -1025 655 -5 4 -48
38 -95 74 -471 369 -842 799 -979 1136 -39 94 -74 210 -86 278 -26 158 -24
400 5 510 5 19 11 46 13 60 9 46 48 154 88 239 117 252 337 473 580 585 70 32
209 81 260 91 13 3 35 7 49 10 14 3 36 7 50 10 129 26 473 26 609 0 10 -2 36
-6 57 -10 84 -13 102 -17 174 -37 142 -39 268 -97 395 -180 73 -48 267 -229
324 -303 83 -108 199 -312 251 -445 26 -65 80 -219 85 -240 2 -8 13 -53 25
-100 22 -83 25 -100 35 -150 11 -56 25 -142 30 -180 10 -84 17 -164 19 -230 5
-118 37 -154 80 -89 15 21 31 40 36 40 6 1 29 2 53 3 l42 1 -1 60 c0 60 -11
192 -18 230 -2 11 -7 42 -10 68 -4 27 -9 57 -11 67 -2 9 -6 33 -9 51 -25 150
-82 351 -149 525 -168 436 -464 782 -827 964 -89 45 -198 89 -239 96 -13 3
-31 9 -40 13 -9 5 -32 12 -51 15 -36 6 -65 11 -110 21 -45 10 -66 13 -121 20
-30 4 -67 9 -84 12 -36 5 -412 13 -417 8z m-678 -2928 c142 -139 224 -214 295
-272 28 -22 57 -47 65 -55 8 -8 87 -69 175 -136 361 -273 751 -516 1240 -774
437 -231 799 -542 1021 -878 123 -185 212 -408 241 -602 9 -66 10 -297 0 -360
-70 -468 -385 -958 -922 -1434 -55 -48 -102 -93 -104 -98 -2 -5 10 -24 25 -41
16 -17 -21 16 -81 73 -61 58 -148 138 -195 179 -47 41 -87 77 -90 80 -13 16
-171 139 -305 240 -208 157 -441 312 -735 491 -42 26 -129 76 -225 130 -105
60 -308 170 -312 170 -3 0 -63 39 -135 86 -383 253 -690 569 -871 894 -49 88
-128 287 -138 345 -1 6 -5 21 -10 34 -5 13 -12 39 -15 59 -3 19 -8 44 -10 56
-17 81 -22 249 -10 356 15 133 29 202 67 325 7 22 13 42 14 45 1 3 9 22 18 44
9 21 17 42 17 47 0 5 4 17 9 27 6 9 33 63 61 120 47 95 80 151 148 257 49 74
175 239 241 315 67 77 382 400 390 400 3 0 62 -55 131 -123z"/>
<path d="M9017 11504 c-1 -2 -29 -5 -62 -8 -195 -17 -392 -70 -561 -152 -262
-126 -522 -385 -652 -650 -43 -89 -100 -251 -116 -329 -1 -5 -5 -23 -9 -40
-45 -204 -39 -479 14 -685 11 -41 21 -82 23 -90 4 -14 14 -42 46 -129 46 -123
183 -350 303 -501 l43 -55 -161 -160 c-331 -329 -533 -598 -692 -925 -53 -108
-123 -294 -137 -363 -3 -12 -8 -33 -11 -47 -34 -142 -39 -192 -40 -385 0 -154
5 -223 20 -295 3 -14 7 -36 10 -50 2 -14 16 -63 30 -110 14 -47 27 -90 28 -97
2 -7 6 -16 10 -19 4 -4 7 -14 7 -21 0 -20 102 -230 150 -308 252 -412 676
-791 1185 -1060 797 -420 1533 -978 1947 -1475 240 -288 401 -588 443 -829 3
-19 7 -37 9 -40 17 -28 25 -326 13 -431 -55 -468 -333 -866 -736 -1053 -69
-31 -152 -63 -191 -72 -3 0 -14 -4 -25 -8 -11 -3 -31 -8 -45 -11 -14 -2 -36
-7 -50 -10 -152 -35 -450 -40 -650 -10 -357 54 -596 165 -822 383 -183 175
-311 373 -424 654 -36 90 -94 267 -110 340 -2 9 -6 27 -10 40 -3 12 -7 33 -10
47 -2 14 -7 36 -10 50 -9 39 -13 61 -19 105 -10 63 -16 106 -20 126 -5 23 -17
175 -19 239 l-2 45 -54 1 c-49 0 -55 3 -82 37 -17 20 -34 37 -39 37 -5 0 -15
-12 -22 -27 -20 -39 -12 -211 18 -426 7 -47 12 -80 20 -117 39 -198 55 -264
73 -310 5 -14 10 -29 11 -35 8 -64 108 -320 181 -460 96 -185 198 -326 333
-464 232 -236 500 -381 822 -447 60 -12 73 -14 100 -19 17 -3 44 -7 60 -10
156 -25 514 -25 646 0 213 41 309 71 462 146 201 99 345 216 500 404 137 168
270 461 303 670 3 22 8 43 9 46 9 14 19 165 19 279 0 141 -10 249 -31 345 -4
17 -8 35 -9 40 -53 265 -217 563 -487 889 l-90 108 34 32 c19 17 59 53 89 80
381 342 671 707 822 1036 35 74 95 232 103 267 2 10 11 44 19 75 9 32 18 71
21 88 3 16 8 45 11 62 14 87 20 305 9 388 -15 124 -35 218 -69 320 -164 508
-653 1030 -1266 1352 -735 387 -1281 759 -1703 1161 -251 239 -457 497 -574
719 -33 61 -112 261 -113 283 0 3 0 6 -1 8 -1 5 -7 33 -13 62 -3 17 -8 41 -11
55 -28 139 -21 371 15 521 56 233 160 425 319 592 187 197 432 322 726 372
148 24 466 25 585 0 14 -3 39 -7 57 -9 18 -3 40 -7 50 -10 10 -2 34 -7 54 -10
20 -3 48 -10 63 -15 14 -6 26 -8 26 -6 0 14 291 -110 298 -127 2 -4 9 -8 15
-8 17 0 135 -84 208 -147 147 -128 266 -287 377 -503 41 -80 73 -146 72 -148
-1 -2 14 -47 33 -100 32 -88 73 -226 83 -277 2 -11 6 -30 9 -42 3 -13 7 -31 9
-42 7 -31 23 -125 31 -186 3 -22 7 -53 10 -70 2 -16 6 -77 10 -135 7 -120 17
-152 51 -170 28 -15 26 -17 45 35 14 39 16 40 68 43 l53 3 -7 107 c-3 59 -8
118 -10 132 -2 14 -6 48 -9 75 -3 28 -8 59 -10 70 -2 11 -7 40 -11 65 -13 78
-45 215 -69 298 -9 28 -22 73 -30 100 -54 183 -151 385 -271 567 -111 169
-252 316 -413 433 -134 96 -375 209 -504 236 -13 3 -34 8 -48 11 -14 3 -38 8
-54 11 -16 2 -32 6 -35 8 -3 2 -30 7 -60 11 -30 4 -63 8 -73 10 -68 14 -451
29 -461 19z m-686 -2947 c433 -423 1022 -834 1724 -1202 606 -318 1029 -736
1214 -1199 17 -43 33 -88 36 -100 2 -12 4 -22 4 -23 1 -2 1 -4 0 -5 0 -2 4
-16 10 -31 6 -15 13 -42 16 -60 3 -18 8 -43 10 -57 22 -105 21 -303 0 -412 -3
-13 -7 -39 -10 -58 -2 -19 -15 -71 -29 -115 -125 -417 -411 -813 -911 -1262
l-80 -72 35 -38 c54 -59 30 -37 -82 73 -124 121 -247 230 -388 344 -58 47
-112 90 -120 97 -69 56 -272 199 -450 318 -249 165 -453 287 -740 444 -334
183 -564 348 -774 557 -331 329 -501 634 -571 1024 -13 72 -14 356 -2 406 3
12 8 39 11 60 48 301 240 670 535 1024 73 87 404 431 414 430 1 0 68 -64 148
-143z"/>
</g>
</svg>
